<svg width="24" height="24" viewBox="0 0 24 24" fill="none" xmlns="http://www.w3.org/2000/svg">
<path d="M14.9402 3.64478C12.9084 2.85541 10.6668 2.7888 8.59168 3.45613C6.51652 4.12346 4.73398 5.48413 3.54309 7.30988C2.35219 9.13563 1.82539 11.3154 2.05106 13.4835C2.27673 15.6516 3.24114 17.6761 4.7825 19.2175C6.32386 20.7589 8.34841 21.7233 10.5165 21.9489C12.6846 22.1746 14.8644 21.6478 16.6901 20.4569C18.5159 19.266 19.8765 17.4835 20.5439 15.4083C21.2112 13.3332 21.1446 11.0916 20.3552 9.05978" stroke="black" stroke-width="2" stroke-linecap="round" stroke-linejoin="round"/>
<path d="M12 14C13.1046 14 14 13.1046 14 12C14 10.8954 13.1046 10 12 10C10.8954 10 10 10.8954 10 12C10 13.1046 10.8954 14 12 14Z" stroke="black" stroke-width="2" stroke-linecap="round" stroke-linejoin="round"/>
<path d="M20.7611 10.0663C21.8752 8.96799 21.1594 6.43525 19.1623 4.40927C17.1651 2.38329 14.6429 1.63127 13.5287 2.72958C12.4145 3.8279 16.3005 3.23558 18.2977 5.26156C20.2948 7.28754 19.6469 11.1646 20.7611 10.0663Z" stroke="black" stroke-width="2" stroke-linecap="round" stroke-linejoin="round"/>
</svg>
