<svg width="24" height="24" viewBox="0 0 24 24" fill="none" xmlns="http://www.w3.org/2000/svg">
<path d="M2 22L3 21H6L15 12" stroke="#1A1A1A" stroke-width="2" stroke-linecap="round" stroke-linejoin="round"/>
<path d="M3 21V18L12 9" stroke="#1A1A1A" stroke-width="2" stroke-linecap="round" stroke-linejoin="round"/>
<path d="M14.9998 5.99984L18.3998 2.59984C18.7977 2.20201 19.3372 1.97852 19.8998 1.97852C20.4624 1.97852 21.002 2.20201 21.3998 2.59984C21.7977 2.99766 22.0212 3.53723 22.0212 4.09984C22.0212 4.66245 21.7977 5.20201 21.3998 5.59984L17.9998 8.99984L18.3998 9.39984C18.5968 9.59682 18.7531 9.83067 18.8597 10.088C18.9663 10.3454 19.0212 10.6213 19.0212 10.8998C19.0212 11.1784 18.9663 11.4543 18.8597 11.7116C18.7531 11.969 18.5968 12.2029 18.3998 12.3998C18.2029 12.5968 17.969 12.7531 17.7116 12.8597C17.4543 12.9663 17.1784 13.0212 16.8998 13.0212C16.6213 13.0212 16.3454 12.9663 16.088 12.8597C15.8307 12.7531 15.5968 12.5968 15.3998 12.3998L11.5998 8.59984C11.4029 8.40285 11.2466 8.169 11.14 7.91163C11.0334 7.65426 10.9785 7.37841 10.9785 7.09984C10.9785 6.82126 11.0334 6.54541 11.14 6.28804C11.2466 6.03067 11.4029 5.79682 11.5998 5.59984C11.7968 5.40285 12.0307 5.2466 12.288 5.13999C12.5454 5.03338 12.8213 4.97852 13.0998 4.97852C13.3784 4.97852 13.6543 5.03338 13.9116 5.13999C14.169 5.2466 14.4029 5.40285 14.5998 5.59984L14.9998 5.99984Z" stroke="#1A1A1A" stroke-width="2" stroke-linecap="round" stroke-linejoin="round"/>
</svg>
