<svg width="24" height="24" viewBox="0 0 24 24" fill="none" xmlns="http://www.w3.org/2000/svg">
<path d="M7.186 18.1704L6.83251 18.5241L7.18613 18.8775L7.53962 18.5239L7.186 18.1704ZM17.5208 7.83198L17.8744 8.18547L18.2279 7.83185L17.8743 7.47836L17.5208 7.83198ZM6.47877 17.4635L6.12515 17.11L5.77166 17.4636L6.12528 17.8171L6.47877 17.4635ZM16.8135 7.125L17.167 6.77138L16.8134 6.41789L16.4599 6.77151L16.8135 7.125ZM6.47705 7.83395L6.12343 7.48046L5.76994 7.83408L6.12356 8.18757L6.47705 7.83395ZM16.8155 18.1687L16.462 18.5223L16.8156 18.8758L17.1691 18.5222L16.8155 18.1687ZM7.18403 7.12672L7.53752 6.7731L7.1839 6.41961L6.83041 6.77323L7.18403 7.12672ZM17.5225 17.4615L17.8761 17.815L18.2296 17.4614L17.876 17.1079L17.5225 17.4615ZM7.53962 18.5239L17.8744 8.18547L17.1672 7.47849L6.83239 17.817L7.53962 18.5239ZM6.12528 17.8171L6.83251 18.5241L7.53949 17.8168L6.83226 17.1098L6.12528 17.8171ZM16.4599 6.77151L6.12515 17.11L6.83239 17.817L17.1672 7.47849L16.4599 6.77151ZM17.8743 7.47836L17.167 6.77138L16.46 7.47862L17.1673 8.1856L17.8743 7.47836ZM6.12356 8.18757L16.462 18.5223L17.169 17.8151L6.83054 7.48034L6.12356 8.18757ZM6.83041 6.77323L6.12343 7.48046L6.83067 8.18744L7.53765 7.48021L6.83041 6.77323ZM17.876 17.1079L7.53752 6.7731L6.83054 7.48034L17.169 17.8151L17.876 17.1079ZM17.1691 18.5222L17.8761 17.815L17.1689 17.108L16.4619 17.8152L17.1691 18.5222Z" fill="white"/>
</svg>
