<svg width="24" height="24" viewBox="0 0 24 24" fill="none" xmlns="http://www.w3.org/2000/svg">
<path d="M4.9377 18.7943H3.90621C3.40674 18.7943 3 18.3876 3 17.8881V15.4216C3 15.1792 3.09436 14.9514 3.26519 14.7806L3.45229 14.5935C3.59058 14.4552 3.70935 14.2974 3.80534 14.1249L4.80592 12.3239C5.07111 11.8456 5.5771 11.5479 6.12538 11.5479H11.4537C11.9352 11.5479 12.3761 11.774 12.6641 12.1693L14.2797 14.3901L13.7916 14.7448L12.176 12.524C12.0036 12.2865 11.74 12.1515 11.4553 12.1515H6.12538C5.79674 12.1515 5.4925 12.3304 5.33305 12.6168L4.33248 14.4178C4.21045 14.6391 4.05752 14.8408 3.87856 15.0198L3.69146 15.2069C3.63451 15.2638 3.6036 15.3403 3.6036 15.42V17.8865C3.6036 18.0524 3.73864 18.1891 3.90621 18.1891H4.9377V18.7927V18.7943Z" fill="black"/>
<path d="M12.0883 18.1904H7.70361V18.794H12.0883V18.1904Z" fill="black"/>
<path d="M6.20508 14.2637H14.9597C15.2884 14.2637 15.6105 14.3532 15.892 14.5224C15.9326 14.5468 16.9039 15.1243 17.2163 15.3749C17.584 15.671 17.7939 16.1656 17.7939 16.7334V17.8869C17.7939 18.3864 17.3871 18.7931 16.8877 18.7931H15.046V18.1895H16.8877C17.0536 18.1895 17.1903 18.0545 17.1903 17.8869V16.7334C17.1903 16.3494 17.0618 16.0257 16.8372 15.8451C16.6062 15.658 15.8529 15.2008 15.5828 15.0414C15.3941 14.9275 15.1794 14.8689 14.9597 14.8689H6.20508" fill="black"/>
<path d="M9.34042 11.8506H8.73682V14.5676H9.34042V11.8506Z" fill="black"/>
<path d="M6.32008 19.7007C5.32113 19.7007 4.50928 18.8889 4.50928 17.8899C4.50928 16.891 5.32113 16.0791 6.32008 16.0791C7.31903 16.0791 8.13088 16.891 8.13088 17.8899C8.13088 18.8889 7.31903 19.7007 6.32008 19.7007V19.7007ZM6.32008 16.6811C5.65465 16.6811 5.11288 17.2229 5.11288 17.8883C5.11288 18.5537 5.65465 19.0955 6.32008 19.0955C6.9855 19.0955 7.52728 18.5537 7.52728 17.8883C7.52728 17.2229 6.9855 16.6811 6.32008 16.6811V16.6811Z" fill="black"/>
<path d="M13.5671 20.0015C12.5682 20.0015 11.7563 19.1896 11.7563 18.1907C11.7563 17.1917 12.5682 16.3799 13.5671 16.3799C14.5661 16.3799 15.378 17.1917 15.378 18.1907C15.378 19.1896 14.5661 20.0015 13.5671 20.0015ZM13.5671 16.9819C12.9017 16.9819 12.3599 17.5236 12.3599 18.1891C12.3599 18.8545 12.9017 19.3963 13.5671 19.3963C14.2326 19.3963 14.7744 18.8545 14.7744 18.1891C14.7744 17.5236 14.2326 16.9819 13.5671 16.9819Z" fill="black"/>
<path d="M6.62313 17.5869H6.01953V18.1905H6.62313V17.5869Z" fill="black"/>
<path d="M13.8699 17.8877H13.2646V18.4913H13.8699V17.8877Z" fill="black"/>
<path d="M17.4905 16.9826H16.1417C15.94 16.9826 15.7513 16.8817 15.639 16.7141L15.2241 16.091L15.7269 15.7559L16.1417 16.379H17.4905V16.9826V16.9826Z" fill="black"/>
<path d="M19.1034 15.171H15.8804V14.5674H19.6045V14.6699C19.6045 14.9465 19.38 15.171 19.1034 15.171Z" fill="black"/>
<path d="M19.6051 6.65234H19.0015V14.5675H19.6051V6.65234Z" fill="black"/>
<path d="M12.3599 5.87695H11.7563V12.1521H12.3599V5.87695Z" fill="black"/>
<path d="M19.908 7.01963C19.8852 7.01963 19.8625 7.01963 19.8413 7.01638L17.5066 6.76582L17.5717 6.16548L19.908 6.41603V5.50981L11.4543 4.6036V5.50981L17.6124 6.16873L17.5473 6.76908L11.3909 6.11016C11.0834 6.07925 10.8491 5.82056 10.8491 5.50981V4.6036C10.8491 4.27007 11.1208 4 11.4527 4C11.4706 4 11.5097 4.00325 11.5097 4.00325L19.9715 4.90947C20.279 4.94201 20.51 5.20069 20.51 5.50981V6.41603C20.51 6.74955 20.2383 7.01963 19.9064 7.01963H19.908Z" fill="black"/>
<path d="M5.4161 12.4536H4.8125V9.36561C4.8125 9.09065 4.99797 8.85149 5.26317 8.78153L11.9825 7.0293L12.1354 7.61337L5.41773 9.36561V12.4536H5.4161Z" fill="black"/>
</svg>
