<svg width="24" height="24" viewBox="0 0 24 24" fill="none" xmlns="http://www.w3.org/2000/svg">
<g clip-path="url(#clip0_130_3544)">
<path d="M3.75 16.5647V16.375V15.375H3.25H2.75H2.25V16.375V16.875C2.25 17.1734 2.13147 17.4595 1.9205 17.6705C1.70952 17.8815 1.42337 18 1.125 18C0.826631 18 0.540483 17.8815 0.329505 17.6705C0.118526 17.4595 0 17.1734 0 16.875V11.625C0 11.3266 0.118526 11.0405 0.329505 10.8295C0.540483 10.6185 0.826631 10.5 1.125 10.5C1.42337 10.5 1.70952 10.6185 1.9205 10.8295C2.13147 11.0405 2.25 11.3266 2.25 11.625V12.125V13.125H2.75H3.25H3.75V12.125V8.625C3.75 8.12772 3.94754 7.65081 4.29917 7.29917C4.65081 6.94754 5.12772 6.75 5.625 6.75L3.75 16.5647ZM3.75 16.5647C3.74933 16.811 3.79755 17.055 3.89185 17.2826M3.75 16.5647L3.89185 17.2826M3.89185 17.2826C3.98615 17.5101 4.12467 17.7167 4.29938 17.8903L3.89185 17.2826ZM21.75 14.125H22.75V13.125V11.625C22.75 11.5918 22.7632 11.5601 22.7866 11.5366C22.8101 11.5132 22.8418 11.5 22.875 11.5C22.9082 11.5 22.9399 11.5132 22.9634 11.5366C22.9868 11.5601 23 11.5918 23 11.625V16.875C23 16.9082 22.9868 16.9399 22.9634 16.9634C22.9399 16.9868 22.9081 17 22.875 17C22.8419 17 22.8101 16.9868 22.7866 16.9634C22.7632 16.9399 22.75 16.9082 22.75 16.875V15.375V14.375H21.75H20.25H19.25V15.375V16.125C19.25 16.2399 19.2274 16.3537 19.1834 16.4598C19.1406 16.5633 19.0783 16.6575 19 16.7374V15.75V12.75V11.7626C19.1602 11.9261 19.25 12.1459 19.25 12.375V13.125V14.125H20.25H21.75ZM18 16.75H18.9874C18.9075 16.8283 18.8133 16.8906 18.7098 16.9334C18.6037 16.9774 18.4899 17 18.375 17H17.3438H16.9298L16.637 17.2926L13.4335 20.4932L13.431 20.4957C13.3507 20.5766 13.255 20.6407 13.1497 20.6843C13.0444 20.728 12.9314 20.7503 12.8174 20.75H12.8147L8.93531 20.75L8.9326 20.75C8.81858 20.7503 8.70563 20.728 8.6003 20.6843C8.49497 20.6407 8.39934 20.5766 8.31897 20.4957L8.31679 20.4935L5.00648 17.1832L5.00431 17.181C4.92343 17.1007 4.85931 17.005 4.81566 16.8997C4.77201 16.7944 4.74969 16.6814 4.75 16.5674V16.5647V15.375V14.375H3.75H2.25H1.25V15.375V16.875C1.25 16.9082 1.23683 16.9399 1.21339 16.9634C1.18995 16.9868 1.15815 17 1.125 17C1.09185 17 1.06005 16.9868 1.03661 16.9634C1.01317 16.9399 1 16.9082 1 16.875V11.625C1 11.5918 1.01317 11.5601 1.03661 11.5366C1.06005 11.5132 1.09185 11.5 1.125 11.5C1.15815 11.5 1.18995 11.5132 1.21339 11.5366C1.23683 11.5601 1.25 11.5918 1.25 11.625V13.125V14.125H2.25H3.75H4.75V13.125V8.625C4.75 8.39591 4.83984 8.17609 5 8.01263V9V16.4062V16.8205L5.29289 17.1134L8.38664 20.2071L8.67954 20.5H9.09375H12.6562H13.0702L13.363 20.2074L16.5665 17.0068L16.569 17.0043C16.6493 16.9234 16.745 16.8593 16.8503 16.8157C16.9556 16.772 17.0686 16.7497 17.1826 16.75H17.1853H18ZM6 8H5.01263C5.17609 7.83984 5.39591 7.75 5.625 7.75H9.375H10.375V6.75V5.25V4.25H9.375H7.875C7.84185 4.25 7.81005 4.23683 7.78661 4.21339C7.76317 4.18995 7.75 4.15815 7.75 4.125C7.75 4.09185 7.76317 4.06005 7.78661 4.03661C7.81005 4.01317 7.84185 4 7.875 4H13.125C13.1582 4 13.1899 4.01317 13.2134 4.03661C13.2368 4.06005 13.25 4.09185 13.25 4.125C13.25 4.15815 13.2368 4.18995 13.2134 4.21339C13.1899 4.23683 13.1582 4.25 13.125 4.25H11.625H10.625V5.25V6.75V7.75H11.625L12.8147 7.75L12.8174 7.75C12.9314 7.74969 13.0444 7.77201 13.1497 7.81566C13.255 7.85931 13.3507 7.92343 13.431 8.00431L13.4335 8.00679L16.637 11.2074L16.9298 11.5H17.3438H18.375C18.6041 11.5 18.8239 11.5898 18.9874 11.75H18L17.1853 11.75L17.1811 11.75C17.0669 11.7505 16.9537 11.7283 16.8481 11.6846C16.7425 11.6409 16.6467 11.5767 16.5662 11.4957L16.564 11.4935L13.3634 8.29289L13.0705 8H12.6562H6Z" fill="black" stroke="white" stroke-width="2"/>
</g>
<defs>
<clipPath id="clip0_130_3544">
<rect width="24" height="24" fill="white"/>
</clipPath>
</defs>
</svg>
