<svg width="24" height="24" viewBox="0 0 24 24" fill="none" xmlns="http://www.w3.org/2000/svg">
<path d="M9.50008 2C9.82839 2 10.1535 2.06467 10.4568 2.1903C10.7601 2.31594 11.0357 2.50009 11.2678 2.73223C11.5 2.96438 11.6841 3.23998 11.8098 3.54329C11.9354 3.84661 12.0001 4.1717 12.0001 4.5V19.5C11.9987 20.1239 11.7642 20.7247 11.3425 21.1845C10.9208 21.6442 10.3424 21.9297 9.72099 21.9848C9.09957 22.04 8.47998 21.8607 7.98393 21.4824C7.48789 21.104 7.15123 20.5539 7.04008 19.94C6.62119 20.0333 6.18535 20.0171 5.77452 19.8931C5.36368 19.7691 4.99167 19.5415 4.69431 19.232C4.39695 18.9226 4.18424 18.5419 4.07667 18.1264C3.96909 17.711 3.97027 17.2749 4.08008 16.86C3.50493 16.6753 2.99895 16.3212 2.62836 15.8441C2.25778 15.367 2.03985 14.7892 2.00311 14.1862C1.96637 13.5832 2.11253 12.9832 2.42245 12.4647C2.73237 11.9461 3.19161 11.5332 3.74008 11.28C3.41398 10.9578 3.18273 10.5522 3.07162 10.1075C2.96051 9.66278 2.97381 9.19607 3.11006 8.75839C3.24632 8.32072 3.50029 7.92893 3.84421 7.62586C4.18812 7.3228 4.60874 7.12013 5.06008 7.04C4.98727 6.71262 4.98107 6.37393 5.04186 6.04411C5.10265 5.71428 5.22919 5.40006 5.41393 5.12014C5.59867 4.84023 5.83785 4.60035 6.11722 4.41478C6.39659 4.22922 6.71043 4.10176 7.04008 4.04C7.14748 3.46627 7.45225 2.9482 7.90156 2.57561C8.35086 2.20301 8.91638 1.99937 9.50008 2Z" stroke="#1A1A1A" stroke-width="2" stroke-linecap="round" stroke-linejoin="round"/>
<path d="M14.5 2C13.837 2 13.2011 2.26339 12.7322 2.73223C12.2634 3.20108 12 3.83696 12 4.5V19.5C12.0013 20.1239 12.2359 20.7247 12.6576 21.1845C13.0793 21.6442 13.6577 21.9297 14.2791 21.9848C14.9005 22.04 15.5201 21.8607 16.0161 21.4824C16.5122 21.104 16.8489 20.5539 16.96 19.94C17.3789 20.0333 17.8147 20.0171 18.2256 19.8931C18.6364 19.7691 19.0084 19.5415 19.3058 19.232C19.6031 18.9226 19.8158 18.5419 19.9234 18.1264C20.031 17.711 20.0298 17.2749 19.92 16.86C20.4952 16.6753 21.0011 16.3212 21.3717 15.8441C21.7423 15.367 21.9602 14.7892 21.997 14.1862C22.0337 13.5832 21.8876 12.9832 21.5776 12.4647C21.2677 11.9461 20.8085 11.5332 20.26 11.28C20.5861 10.9578 20.8173 10.5522 20.9285 10.1075C21.0396 9.66278 21.0263 9.19607 20.89 8.75839C20.7538 8.32072 20.4998 7.92893 20.1559 7.62586C19.812 7.3228 19.3913 7.12013 18.94 7.04C19.0128 6.71262 19.019 6.37393 18.9582 6.04411C18.8974 5.71428 18.7709 5.40006 18.5862 5.12014C18.4014 4.84023 18.1622 4.60035 17.8829 4.41478C17.6035 4.22922 17.2896 4.10176 16.96 4.04C16.8526 3.46627 16.5478 2.9482 16.0985 2.57561C15.6492 2.20301 15.0837 1.99937 14.5 2Z" stroke="#1A1A1A" stroke-width="2" stroke-linecap="round" stroke-linejoin="round"/>
</svg>
