<svg width="24" height="24" viewBox="0 0 24 24" fill="none" xmlns="http://www.w3.org/2000/svg">
<path d="M19.402 10.2C19.402 15.6 12.201 21 12.201 21C12.201 21 5 15.6 5 10.2C5 8.29044 5.75868 6.45909 7.10913 5.10883C8.45958 3.75857 10.2912 3 12.201 3C14.1108 3 15.9425 3.75857 17.2929 5.10883C18.6434 6.45909 19.402 8.29044 19.402 10.2V10.2Z" stroke="black" stroke-width="1.5" stroke-linecap="round" stroke-linejoin="round"/>
<path d="M12.3298 12.9C13.8212 12.9 15.0302 11.6912 15.0302 10.2C15.0302 8.70883 13.8212 7.5 12.3298 7.5C10.8384 7.5 9.62939 8.70883 9.62939 10.2C9.62939 11.6912 10.8384 12.9 12.3298 12.9Z" stroke="black" stroke-width="1.5" stroke-linecap="round" stroke-linejoin="round"/>
</svg>
