<svg width="24" height="24" viewBox="0 0 24 24" fill="none" xmlns="http://www.w3.org/2000/svg">
<path d="M12 22C10.75 22 9.579 21.7623 8.487 21.287C7.395 20.8117 6.445 20.1703 5.637 19.363C4.829 18.5543 4.18767 17.6043 3.713 16.513C3.23833 15.4217 3.00067 14.2507 3 13H5C5 14.95 5.67933 16.6043 7.038 17.963C8.39667 19.3217 10.0507 20.0007 12 20C13.95 20 15.6043 19.3207 16.963 17.962C18.3217 16.6033 19.0007 14.9493 19 13C19 11.05 18.3207 9.39567 16.962 8.037C15.6033 6.67833 13.9493 5.99933 12 6H11.85L13.4 7.55L12 9L8 5L12 1L13.4 2.45L11.85 4H12C13.25 4 14.421 4.23767 15.513 4.713C16.605 5.18833 17.555 5.83 18.363 6.638C19.171 7.446 19.8127 8.396 20.288 9.488C20.7633 10.58 21.0007 11.7507 21 13C21 14.25 20.7623 15.421 20.287 16.513C19.8117 17.605 19.1703 18.555 18.363 19.363C17.5543 20.171 16.6043 20.8127 15.513 21.288C14.4217 21.7633 13.2507 22.0007 12 22Z" fill="black"/>
</svg>
