<svg width="24" height="24" viewBox="0 0 24 24" fill="none" xmlns="http://www.w3.org/2000/svg">
<path d="M17.9322 14.6989C17.0248 13.9093 15.935 13.4191 15.0883 13.4191C14.6359 13.4191 14.259 13.5571 13.9979 13.8179C13.4495 14.366 12.7802 14.8639 12.4625 15.0155C12.0751 14.904 10.7255 13.9488 9.5547 12.7781C8.36233 11.5857 7.45931 10.4795 7.30548 10.175C7.34719 9.86996 7.96543 8.88446 8.51441 8.33555C9.28951 7.56057 8.91074 5.86936 7.63357 4.40158C5.57393 2.03576 5.54318 2 5.32407 2C5.2191 2.0002 5.10675 2.03651 5.02313 2.10815C4.99679 2.13089 4.97783 2.14725 3.43963 3.92746C2.57891 4.92414 1.51211 6.69595 1.06147 7.87676C0.483929 9.39083 4.11475 14.1622 6.14225 16.1895C8.5294 18.5765 11.3475 20.8079 12.5583 21.2694C12.7199 21.331 12.9089 21.3624 13.1207 21.3624H13.1209C14.696 21.3624 17.576 19.6087 18.4063 18.8918C20.1764 17.3634 20.1844 17.3546 20.2103 17.3248C20.2886 17.2357 20.3279 17.1187 20.3199 17.0004C20.3047 16.7757 20.3039 16.7622 17.9324 14.6988L17.9322 14.6989ZM17.8217 18.2156C16.9516 18.9673 14.3084 20.4689 13.1206 20.4689C12.9935 20.4689 12.9179 20.4504 12.877 20.4348C11.8035 20.0254 9.0087 17.7922 6.77461 15.558C4.14142 12.925 1.6199 8.92223 1.89695 8.19536C2.30964 7.1139 3.32601 5.42688 4.11643 4.51183C4.60077 3.95112 5.03958 3.44472 5.32179 3.11949C5.65844 3.4992 6.23799 4.15943 6.95918 4.9881C7.99268 6.17571 8.19626 7.38927 7.88233 7.7031C7.60375 7.98185 6.15696 9.67306 6.45388 10.457C6.6712 11.0295 8.04898 12.5368 8.92241 13.4101C9.70849 14.1958 11.6983 15.9182 12.4921 15.918C12.572 15.918 12.6478 15.9046 12.717 15.8785C13.2237 15.6863 14.0808 14.9991 14.6302 14.45C14.7436 14.3367 14.9419 14.3128 15.0884 14.3128C15.719 14.3128 16.6051 14.7288 17.3454 15.3731C18.1257 16.0521 18.8126 16.664 19.2053 17.0194C18.8906 17.2919 18.3987 17.7171 17.8216 18.2154L17.8217 18.2156Z" fill="white"/>
<path d="M18.8634 2H15.0091C12.7285 2 10.873 3.85502 10.873 6.13549C10.873 7.31431 11.3652 8.41294 12.2341 9.19727L11.2933 11.784C11.2269 11.9662 11.2858 12.1703 11.4388 12.2894C11.5192 12.3521 11.6162 12.3838 11.7134 12.3838C11.801 12.3838 11.8886 12.3581 11.9647 12.3068L14.9647 10.27C14.9794 10.2704 14.9942 10.2706 15.0092 10.2706H18.8638C21.1444 10.2706 22.9999 8.41555 22.9999 6.13549C22.9995 3.85523 21.1442 2.00001 18.8634 2.00001L18.8634 2ZM18.8634 9.37697H15.0091C14.9818 9.37697 14.955 9.37478 14.9285 9.37298L14.8603 9.36879C14.7641 9.3644 14.6679 9.39114 14.5879 9.44541L12.6062 10.7911L13.1818 9.2084C13.2484 9.02543 13.1888 8.82051 13.0345 8.70159C12.2293 8.08107 11.7675 7.14585 11.7675 6.13564C11.7675 4.34825 13.2219 2.89405 15.0095 2.89405H18.8642C20.6519 2.89405 22.1063 4.34825 22.1063 6.13564C22.1055 7.92282 20.6513 9.37702 18.8634 9.37702L18.8634 9.37697Z" fill="white"/>
<path d="M19.3574 4.75391H14.5149C14.2682 4.75391 14.0679 4.95418 14.0679 5.20073C14.0679 5.44728 14.2682 5.64755 14.5149 5.64755H19.3574C19.604 5.64755 19.8044 5.44728 19.8044 5.20073C19.8044 4.95418 19.604 4.75391 19.3574 4.75391Z" fill="white"/>
<path d="M19.3574 7.06348H14.5149C14.2682 7.06348 14.0679 7.26375 14.0679 7.5103C14.0679 7.75685 14.2682 7.95712 14.5149 7.95712H19.3574C19.604 7.95712 19.8044 7.75685 19.8044 7.5103C19.8044 7.26355 19.604 7.06348 19.3574 7.06348Z" fill="white"/>
</svg>
