<svg width="24" height="24" viewBox="0 0 24 24" fill="none" xmlns="http://www.w3.org/2000/svg">
<path d="M12.3272 2C6.99368 2 2.65426 6.36103 2.65426 11.7211C2.65426 13.3612 3.06873 14.9777 3.85469 16.4099L2.03294 20.8393C1.96961 20.9932 1.99905 21.1696 2.10867 21.2942C2.19215 21.3893 2.31126 21.4417 2.43405 21.4417C2.47221 21.4417 2.51075 21.4366 2.54852 21.4261L7.40602 20.0893C8.89348 20.9746 10.5907 21.4415 12.327 21.4415C17.6606 21.4415 22 17.0809 22 11.7204C22.0002 6.3603 17.6606 2.00026 12.327 2.00026L12.3272 2ZM12.3272 20.5698C10.6887 20.5698 9.08832 20.1131 7.69983 19.2489C7.63068 19.2057 7.55147 19.1835 7.47148 19.1835C7.43313 19.1835 7.39478 19.1885 7.35701 19.1991L3.17333 20.3504L4.73769 16.5464C4.7894 16.4209 4.77972 16.2782 4.71193 16.1608C3.93354 14.815 3.52216 13.2799 3.52216 11.7208C3.52216 6.84147 7.47206 2.87169 12.3274 2.87169C17.1828 2.87169 21.1327 6.84127 21.1327 11.7208C21.1327 16.6004 17.1828 20.5699 12.3274 20.5699L12.3272 20.5698Z" fill="white"/>
<path d="M16.6737 14.1348L14.7383 12.9974C14.6037 12.9184 14.4411 12.9317 14.3182 13.0318L12.6865 14.3612C11.7711 13.5966 11.2218 12.9142 11.2118 12.9017C11.2058 12.8941 11.1984 12.8885 11.192 12.8814C11.1863 12.875 11.1817 12.8676 11.1752 12.8613C11.1674 12.8537 10.7923 12.4813 10.3177 11.7691L11.5267 9.89123C11.6155 9.75295 11.6275 9.57004 11.5571 9.41869L10.5461 7.2419C10.4441 7.02202 10.2032 6.93659 10.0079 7.05035L8.21681 8.08989C8.04492 8.18958 7.96113 8.41329 8.01741 8.62131C8.84433 11.6684 10.4401 13.3306 10.6313 13.522C10.837 13.776 12.7299 16.0459 15.4475 16.9791C15.4863 16.9924 15.5256 16.9986 15.5644 16.9986C15.7109 16.9986 15.8499 16.9077 15.9199 16.7548L16.8442 14.7402C16.9452 14.5203 16.8693 14.2496 16.674 14.1348L16.6737 14.1348ZM8.88521 8.71458L10.0205 8.0557L10.7325 9.58869L9.83806 10.9784C9.50071 10.366 9.15747 9.60901 8.88516 8.71458H8.88521ZM15.3646 16.0011C14.6295 15.7106 13.9614 15.3149 13.3857 14.903L14.5868 13.9244L15.9497 14.7253L15.3646 16.0011Z" fill="white"/>
</svg>
