<svg width="25" height="25" viewBox="0 0 25 25" fill="none" xmlns="http://www.w3.org/2000/svg">
<mask id="path-1-inside-1_225_4874" fill="white">
<path fill-rule="evenodd" clip-rule="evenodd" d="M10.7595 22.751V13.917H7.81445V10.236H10.7595V7.29098C10.7595 4.24798 12.6855 2.75098 15.3995 2.75098C16.6995 2.75098 17.8175 2.84798 18.1435 2.89098V6.07098H16.2605C14.7845 6.07098 14.4405 6.77398 14.4405 7.80298V10.236H18.1205L17.3845 13.916H14.4405L14.4995 22.751"/>
</mask>
<path fill-rule="evenodd" clip-rule="evenodd" d="M10.7595 22.751V13.917H7.81445V10.236H10.7595V7.29098C10.7595 4.24798 12.6855 2.75098 15.3995 2.75098C16.6995 2.75098 17.8175 2.84798 18.1435 2.89098V6.07098H16.2605C14.7845 6.07098 14.4405 6.77398 14.4405 7.80298V10.236H18.1205L17.3845 13.916H14.4405L14.4995 22.751" fill="white"/>
<path d="M10.7595 13.917H11.7595V12.917H10.7595V13.917ZM7.81445 13.917H6.81445V14.917H7.81445V13.917ZM7.81445 10.236V9.23598H6.81445V10.236H7.81445ZM10.7595 10.236V11.236H11.7595V10.236H10.7595ZM18.1435 2.89098H19.1435V2.01422L18.2742 1.89956L18.1435 2.89098ZM18.1435 6.07098V7.07098H19.1435V6.07098H18.1435ZM14.4405 10.236H13.4405V11.236H14.4405V10.236ZM18.1205 10.236L19.101 10.4321L19.3403 9.23598H18.1205V10.236ZM17.3845 13.916V14.916H18.2043L18.365 14.1121L17.3845 13.916ZM14.4405 13.916V12.916H13.4338L13.4405 13.9227L14.4405 13.916ZM11.7595 22.751V13.917H9.75945V22.751H11.7595ZM10.7595 12.917H7.81445V14.917H10.7595V12.917ZM8.81445 13.917V10.236H6.81445V13.917H8.81445ZM7.81445 11.236H10.7595V9.23598H7.81445V11.236ZM11.7595 10.236V7.29098H9.75945V10.236H11.7595ZM11.7595 7.29098C11.7595 5.98875 12.1644 5.14384 12.7385 4.61599C13.3262 4.07568 14.2183 3.75098 15.3995 3.75098V1.75098C13.8666 1.75098 12.4387 2.17477 11.3849 3.14371C10.3175 4.12511 9.75945 5.5502 9.75945 7.29098H11.7595ZM15.3995 3.75098C16.6616 3.75098 17.7355 3.84583 18.0127 3.88239L18.2742 1.89956C17.8994 1.85012 16.7373 1.75098 15.3995 1.75098V3.75098ZM17.1435 2.89098V6.07098H19.1435V2.89098H17.1435ZM18.1435 5.07098H16.2605V7.07098H18.1435V5.07098ZM16.2605 5.07098C15.3861 5.07098 14.5904 5.2782 14.0495 5.88681C13.5297 6.47163 13.4405 7.21637 13.4405 7.80298H15.4405C15.4405 7.36058 15.5232 7.23932 15.5444 7.21539C15.5446 7.21525 15.6588 7.07098 16.2605 7.07098V5.07098ZM13.4405 7.80298V10.236H15.4405V7.80298H13.4405ZM14.4405 11.236H18.1205V9.23598H14.4405V11.236ZM17.1399 10.0399L16.4039 13.7199L18.365 14.1121L19.101 10.4321L17.1399 10.0399ZM17.3845 12.916H14.4405V14.916H17.3845V12.916ZM13.4405 13.9227L13.4995 22.7577L15.4994 22.7443L15.4404 13.9093L13.4405 13.9227Z" fill="white" mask="url(#path-1-inside-1_225_4874)"/>
</svg>
