<svg width="35" height="15" viewBox="0 0 35 15" fill="none" xmlns="http://www.w3.org/2000/svg">
<path fill-rule="evenodd" clip-rule="evenodd" d="M34.9338 7.43168C34.9238 7.17468 34.8168 6.87668 34.6398 6.68868L28.8678 0.554676C28.4768 0.203676 27.7268 0.0596763 27.2898 0.465676C26.8598 0.865676 26.8728 1.64268 27.3008 2.04468L31.3598 6.35068H1.48583C0.887832 6.35068 0.402832 6.83468 0.402832 7.43168C0.402832 8.02968 0.887832 8.51468 1.48583 8.51468H31.3598L27.3008 12.8207C26.9318 13.1907 26.8638 13.9947 27.2898 14.3977C27.7168 14.8037 28.4928 14.6747 28.8678 14.3077L34.6398 8.17568C34.8378 7.96568 34.9338 7.71968 34.9338 7.43168Z" fill="#ED1C24"/>
</svg>
