<svg width="35" height="15" viewBox="0 0 35 15" fill="none" xmlns="http://www.w3.org/2000/svg">
<path d="M7.57625 13.53C7.57809 13.7104 7.51346 13.8599 7.41965 13.9473C7.33388 14.027 7.19394 14.0745 7.00352 14.0555C6.81766 14.0369 6.64106 13.9584 6.52939 13.8642L0.774105 7.74798L0.774014 7.74788C0.695107 7.66407 0.62458 7.49322 0.616032 7.33756C0.618011 7.18009 0.666847 7.06002 0.773762 6.94663L0.774048 6.94633L6.53766 0.823242C6.63266 0.733808 6.8043 0.652596 6.99779 0.634596C7.19307 0.616428 7.33524 0.667713 7.41544 0.743973L7.41636 0.744843C7.49728 0.821397 7.55945 0.96765 7.55287 1.16592C7.54619 1.36724 7.47071 1.52958 7.39494 1.60555L7.3948 1.60541L7.38514 1.61566L3.32614 5.92166L2.53153 6.76462H3.68997L33.564 6.76462C33.8858 6.76462 34.147 7.02576 34.147 7.34762C34.147 7.66758 33.8867 7.92862 33.564 7.92862L3.68997 7.92862H2.53153L3.32614 8.77158L7.38514 13.0776L7.39557 13.0887L7.40666 13.0991C7.50596 13.1923 7.57441 13.3491 7.57625 13.53Z" fill="#ED1C24" stroke="#ED1C24"/>
</svg>
